<mxfile host="app.diagrams.net" modified="2021-03-07T07:38:43.238Z" agent="5.0 (Windows NT 10.0; Win64; x64) AppleWebKit/537.36 (KHTML, like Gecko) Chrome/88.0.4324.190 Safari/537.36" etag="6HpzEILhy_8FHHvD4NxF" version="14.4.4" type="github">
  <diagram id="C5RBs43oDa-KdzZeNtuy" name="Page-1">
    <mxGraphModel dx="782" dy="469" grid="1" gridSize="10" guides="1" tooltips="1" connect="1" arrows="1" fold="1" page="1" pageScale="1" pageWidth="827" pageHeight="1169" math="0" shadow="0">
      <root>
        <mxCell id="WIyWlLk6GJQsqaUBKTNV-0" />
        <mxCell id="WIyWlLk6GJQsqaUBKTNV-1" parent="WIyWlLk6GJQsqaUBKTNV-0" />
        <mxCell id="WIyWlLk6GJQsqaUBKTNV-11" value="Repair Lamp" style="rounded=1;whiteSpace=wrap;html=1;fontSize=12;glass=0;strokeWidth=1;shadow=0;" parent="WIyWlLk6GJQsqaUBKTNV-1" vertex="1">
          <mxGeometry x="160" y="530" width="120" height="40" as="geometry" />
        </mxCell>
        <mxCell id="DDvuV-vKYEO2AlbZwFwp-10" value="" style="edgeStyle=orthogonalEdgeStyle;rounded=0;orthogonalLoop=1;jettySize=auto;html=1;" edge="1" parent="WIyWlLk6GJQsqaUBKTNV-1" source="DDvuV-vKYEO2AlbZwFwp-2" target="DDvuV-vKYEO2AlbZwFwp-8">
          <mxGeometry relative="1" as="geometry">
            <Array as="points">
              <mxPoint x="225" y="210" />
              <mxPoint x="225" y="210" />
            </Array>
          </mxGeometry>
        </mxCell>
        <mxCell id="DDvuV-vKYEO2AlbZwFwp-2" value="数据预处理" style="rounded=1;whiteSpace=wrap;html=1;" vertex="1" parent="WIyWlLk6GJQsqaUBKTNV-1">
          <mxGeometry x="160" y="150" width="130" height="40" as="geometry" />
        </mxCell>
        <mxCell id="DDvuV-vKYEO2AlbZwFwp-6" style="edgeStyle=orthogonalEdgeStyle;rounded=0;orthogonalLoop=1;jettySize=auto;html=1;entryX=0.25;entryY=0;entryDx=0;entryDy=0;exitX=0.5;exitY=1;exitDx=0;exitDy=0;" edge="1" parent="WIyWlLk6GJQsqaUBKTNV-1" source="DDvuV-vKYEO2AlbZwFwp-17" target="DDvuV-vKYEO2AlbZwFwp-2">
          <mxGeometry relative="1" as="geometry">
            <mxPoint x="160" y="70" as="sourcePoint" />
            <Array as="points">
              <mxPoint x="90" y="115" />
              <mxPoint x="193" y="115" />
            </Array>
          </mxGeometry>
        </mxCell>
        <mxCell id="DDvuV-vKYEO2AlbZwFwp-20" style="edgeStyle=orthogonalEdgeStyle;rounded=0;orthogonalLoop=1;jettySize=auto;html=1;exitX=0.5;exitY=1;exitDx=0;exitDy=0;" edge="1" parent="WIyWlLk6GJQsqaUBKTNV-1" source="DDvuV-vKYEO2AlbZwFwp-4">
          <mxGeometry relative="1" as="geometry">
            <mxPoint x="93" y="87" as="targetPoint" />
          </mxGeometry>
        </mxCell>
        <mxCell id="DDvuV-vKYEO2AlbZwFwp-4" value="&lt;font style=&quot;vertical-align: inherit&quot;&gt;&lt;font style=&quot;vertical-align: inherit&quot;&gt;训练数据&lt;/font&gt;&lt;/font&gt;" style="ellipse;whiteSpace=wrap;html=1;" vertex="1" parent="WIyWlLk6GJQsqaUBKTNV-1">
          <mxGeometry x="30" y="10" width="120" height="60" as="geometry" />
        </mxCell>
        <mxCell id="DDvuV-vKYEO2AlbZwFwp-7" style="edgeStyle=orthogonalEdgeStyle;rounded=0;orthogonalLoop=1;jettySize=auto;html=1;exitX=0.5;exitY=1;exitDx=0;exitDy=0;entryX=0.677;entryY=-0.05;entryDx=0;entryDy=0;entryPerimeter=0;" edge="1" parent="WIyWlLk6GJQsqaUBKTNV-1" source="DDvuV-vKYEO2AlbZwFwp-5" target="DDvuV-vKYEO2AlbZwFwp-2">
          <mxGeometry relative="1" as="geometry" />
        </mxCell>
        <mxCell id="DDvuV-vKYEO2AlbZwFwp-5" value="&lt;font style=&quot;vertical-align: inherit&quot;&gt;&lt;font style=&quot;vertical-align: inherit&quot;&gt;测试数据&lt;/font&gt;&lt;/font&gt;" style="ellipse;whiteSpace=wrap;html=1;" vertex="1" parent="WIyWlLk6GJQsqaUBKTNV-1">
          <mxGeometry x="310" y="20" width="120" height="60" as="geometry" />
        </mxCell>
        <mxCell id="DDvuV-vKYEO2AlbZwFwp-13" style="edgeStyle=orthogonalEdgeStyle;rounded=0;orthogonalLoop=1;jettySize=auto;html=1;exitX=0.5;exitY=1;exitDx=0;exitDy=0;" edge="1" parent="WIyWlLk6GJQsqaUBKTNV-1" source="DDvuV-vKYEO2AlbZwFwp-8" target="DDvuV-vKYEO2AlbZwFwp-11">
          <mxGeometry relative="1" as="geometry" />
        </mxCell>
        <mxCell id="DDvuV-vKYEO2AlbZwFwp-8" value="编码" style="rounded=1;whiteSpace=wrap;html=1;" vertex="1" parent="WIyWlLk6GJQsqaUBKTNV-1">
          <mxGeometry x="160" y="220" width="130" height="40" as="geometry" />
        </mxCell>
        <mxCell id="DDvuV-vKYEO2AlbZwFwp-15" style="edgeStyle=orthogonalEdgeStyle;rounded=0;orthogonalLoop=1;jettySize=auto;html=1;exitX=0.5;exitY=1;exitDx=0;exitDy=0;" edge="1" parent="WIyWlLk6GJQsqaUBKTNV-1" source="DDvuV-vKYEO2AlbZwFwp-11" target="DDvuV-vKYEO2AlbZwFwp-14">
          <mxGeometry relative="1" as="geometry" />
        </mxCell>
        <mxCell id="DDvuV-vKYEO2AlbZwFwp-11" value="bert编码器" style="rounded=1;whiteSpace=wrap;html=1;" vertex="1" parent="WIyWlLk6GJQsqaUBKTNV-1">
          <mxGeometry x="166" y="290" width="120" height="30" as="geometry" />
        </mxCell>
        <mxCell id="DDvuV-vKYEO2AlbZwFwp-23" style="edgeStyle=orthogonalEdgeStyle;rounded=0;orthogonalLoop=1;jettySize=auto;html=1;exitX=0.25;exitY=1;exitDx=0;exitDy=0;entryX=0.5;entryY=0;entryDx=0;entryDy=0;" edge="1" parent="WIyWlLk6GJQsqaUBKTNV-1" source="DDvuV-vKYEO2AlbZwFwp-14" target="DDvuV-vKYEO2AlbZwFwp-16">
          <mxGeometry relative="1" as="geometry" />
        </mxCell>
        <mxCell id="DDvuV-vKYEO2AlbZwFwp-24" style="edgeStyle=orthogonalEdgeStyle;rounded=0;orthogonalLoop=1;jettySize=auto;html=1;exitX=0.75;exitY=1;exitDx=0;exitDy=0;entryX=0.633;entryY=0;entryDx=0;entryDy=0;entryPerimeter=0;" edge="1" parent="WIyWlLk6GJQsqaUBKTNV-1" source="DDvuV-vKYEO2AlbZwFwp-14" target="DDvuV-vKYEO2AlbZwFwp-22">
          <mxGeometry relative="1" as="geometry" />
        </mxCell>
        <mxCell id="DDvuV-vKYEO2AlbZwFwp-14" value="解码器" style="rounded=1;whiteSpace=wrap;html=1;" vertex="1" parent="WIyWlLk6GJQsqaUBKTNV-1">
          <mxGeometry x="165" y="360" width="120" height="30" as="geometry" />
        </mxCell>
        <mxCell id="DDvuV-vKYEO2AlbZwFwp-16" value="计算rouge" style="rounded=1;whiteSpace=wrap;html=1;" vertex="1" parent="WIyWlLk6GJQsqaUBKTNV-1">
          <mxGeometry x="20" y="450" width="120" height="30" as="geometry" />
        </mxCell>
        <mxCell id="DDvuV-vKYEO2AlbZwFwp-17" value="分割出验证集" style="rounded=1;whiteSpace=wrap;html=1;" vertex="1" parent="WIyWlLk6GJQsqaUBKTNV-1">
          <mxGeometry x="40" y="90" width="120" height="40" as="geometry" />
        </mxCell>
        <mxCell id="DDvuV-vKYEO2AlbZwFwp-22" value="生成摘要" style="rounded=1;whiteSpace=wrap;html=1;" vertex="1" parent="WIyWlLk6GJQsqaUBKTNV-1">
          <mxGeometry x="294" y="450" width="120" height="30" as="geometry" />
        </mxCell>
      </root>
    </mxGraphModel>
  </diagram>
</mxfile>
